<?xml version="1.0" encoding="utf-8"?>
<svg viewBox="316.897 236.378 27.2 27.206" width="27.2" height="27.206" xmlns="http://www.w3.org/2000/svg">
  <path d="M 330.499 236.378 C 322.894 236.477 316.805 242.719 316.898 250.324 C 316.856 256.269 320.592 261.584 326.201 263.558 C 326.276 263.573 326.355 263.581 326.432 263.581 C 326.824 263.606 327.152 263.282 327.129 262.887 C 327.129 262.555 327.119 261.68 327.112 260.514 C 326.663 260.619 326.202 260.675 325.74 260.678 C 324.338 260.789 323.031 259.961 322.533 258.645 C 322.288 257.806 321.751 257.084 321.021 256.604 C 319.839 255.771 321.021 255.749 321.107 255.749 C 321.986 255.887 322.752 256.419 323.19 257.193 C 323.63 258.121 324.565 258.713 325.592 258.718 C 326.129 258.708 326.66 258.582 327.148 258.353 C 327.207 257.649 327.511 256.989 328.009 256.489 C 324.991 256.137 321.816 254.941 321.816 249.598 C 321.79 248.218 322.291 246.883 323.211 245.857 C 322.794 244.653 322.84 243.335 323.34 242.164 C 323.439 242.14 323.541 242.13 323.643 242.133 C 324.908 242.272 326.104 242.781 327.082 243.597 C 329.308 242.973 331.665 242.973 333.893 243.597 C 334.87 242.781 336.066 242.272 337.332 242.133 C 337.432 242.13 337.535 242.14 337.634 242.164 C 338.134 243.335 338.181 244.653 337.762 245.857 C 338.683 246.883 339.182 248.218 339.159 249.598 C 339.159 254.954 335.978 256.131 332.948 256.476 C 333.605 257.169 333.942 258.105 333.871 259.057 C 333.871 260.922 333.853 262.427 333.853 262.884 C 333.824 263.277 334.152 263.606 334.546 263.583 C 334.627 263.583 334.707 263.573 334.788 263.558 C 344.939 259.945 347.375 246.699 339.169 239.712 C 336.744 237.646 333.684 236.469 330.499 236.378 Z" style="fill: rgb(103, 137, 131);"/>
</svg>