<?xml version="1.0" encoding="utf-8"?>
<svg viewBox="0 0 21.213 21.213" width="21.213px" height="21.213px" xmlns="http://www.w3.org/2000/svg">
  <path d="M51.516,32h-17.7A1.73,1.73,0,0,0,32,33.652V51.395a1.866,1.866,0,0,0,1.813,1.818h17.7a1.772,1.772,0,0,0,1.7-1.818V33.652A1.626,1.626,0,0,0,51.516,32ZM38.575,49.682H35.537V40.233h3.039ZM37.161,38.8h-.022a1.652,1.652,0,1,1,.022,0ZM49.682,49.682H46.643V44.515c0-1.238-.442-2.083-1.542-2.083a1.662,1.662,0,0,0-1.558,1.122,2.047,2.047,0,0,0-.105.746v5.382H40.4V40.233h3.039v1.315a3.077,3.077,0,0,1,2.741-1.536c1.995,0,3.5,1.315,3.5,4.15Z" transform="matrix(1, 0, 0, 1, -32, -32)" style="fill: rgb(103, 137, 131);"/>
</svg>